<?xml version="1.0" encoding="utf-8"?>
<!-- Generator: Adobe Illustrator 22.1.0, SVG Export Plug-In . SVG Version: 6.00 Build 0)  -->
<svg version="1.1" id="Layer_1" xmlns="http://www.w3.org/2000/svg" xmlns:xlink="http://www.w3.org/1999/xlink" x="0px" y="0px"
	 viewBox="0 0 452.8 140" style="enable-background:new 0 0 452.8 140;" xml:space="preserve">
<style type="text/css">
	.st0{fill:#F2F2F2;}
	.st1{fill:#FFFFFF;}
	.st2{fill:#969696;}
	.st3{opacity:0.5;fill:#F2F2F2;}
	.st4{opacity:0.4;fill:#969696;}
</style>
<circle class="st0" cx="226.4" cy="70" r="62"/>
<path class="st1" d="M224.6,47.6c1-0.5,2.6-0.5,3.6,0l44.4,22.2c1,0.5,1.8,1.8,1.8,2.9v44c0,1.1-0.9,2-2,2h-92c-1.1,0-2-0.9-2-2v-44
	c0-1.1,0.8-2.4,1.8-2.9L224.6,47.6z"/>
<path class="st2" d="M272.8,69.4l-44.4-22.2c-1.1-0.6-2.9-0.6-4,0L180,69.4c-1.2,0.6-2.1,2-2.1,3.3v44c0,1.4,1.1,2.5,2.5,2.5h92
	c1.4,0,2.5-1.1,2.5-2.5v-44C274.9,71.4,274,70,272.8,69.4z M180.4,70.3l44.4-22.2c0.4-0.2,1-0.3,1.6-0.3s1.1,0.1,1.6,0.3l44.4,22.2
	c0.1,0.1,0.2,0.1,0.4,0.2l-45.3,23.7l-47.3-23.7C180.2,70.4,180.3,70.3,180.4,70.3z M272.4,118.2h-92c-0.8,0-1.5-0.7-1.5-1.5v-44
	c0-0.5,0.2-1,0.5-1.5l93.6,46.8C272.8,118.2,272.6,118.2,272.4,118.2z M273.9,116.7c0,0.2-0.1,0.5-0.2,0.6c0,0-0.1-0.1-0.1-0.1
	l-45.1-22.6l44.9-23.4c0.3,0.5,0.5,1,0.5,1.4V116.7z"/>
<g>
	<g>
		<path class="st2" d="M226.4,72.6c-0.3,0-0.5-0.2-0.5-0.5l0-6.6c0-0.3,0.2-0.5,0.5-0.5h0c0.3,0,0.5,0.2,0.5,0.5l0,6.6
			C226.9,72.4,226.7,72.6,226.4,72.6L226.4,72.6z"/>
	</g>
	<g>
		<path class="st2" d="M224.8,70.8c-0.1,0-0.3,0-0.4-0.1c-0.2-0.2-0.2-0.5,0-0.7l3.1-3.1c0.2-0.2,0.5-0.2,0.7,0
			c0.2,0.2,0.2,0.5,0,0.7l-3.1,3.1C225.1,70.8,225,70.8,224.8,70.8z"/>
	</g>
	<g>
		<path class="st2" d="M223.1,69.3c-0.3,0-0.5-0.2-0.5-0.5s0.2-0.5,0.5-0.5l6.6,0c0,0,0,0,0,0c0.3,0,0.5,0.2,0.5,0.5
			s-0.2,0.5-0.5,0.5L223.1,69.3L223.1,69.3z"/>
	</g>
	<g>
		<path class="st2" d="M228,70.8c-0.1,0-0.3,0-0.4-0.1l-3.1-3.1c-0.2-0.2-0.2-0.5,0-0.7c0.2-0.2,0.5-0.2,0.7,0l3.1,3.1
			c0.2,0.2,0.2,0.5,0,0.7C228.2,70.8,228.1,70.8,228,70.8z"/>
	</g>
</g>
<g>
	<g>
		<path class="st2" d="M251,48c-0.3,0-0.5-0.2-0.5-0.5l0-6.6c0-0.3,0.2-0.5,0.5-0.5c0,0,0,0,0,0c0.3,0,0.5,0.2,0.5,0.5l0,6.6
			C251.5,47.7,251.3,48,251,48C251,48,251,48,251,48z"/>
	</g>
	<g>
		<path class="st2" d="M249.5,46.2c-0.1,0-0.3,0-0.4-0.1c-0.2-0.2-0.2-0.5,0-0.7l3.1-3.1c0.2-0.2,0.5-0.2,0.7,0
			c0.2,0.2,0.2,0.5,0,0.7l-3.1,3.1C249.7,46.2,249.6,46.2,249.5,46.2z"/>
	</g>
	<g>
		<path class="st2" d="M247.7,44.6c-0.3,0-0.5-0.2-0.5-0.5s0.2-0.5,0.5-0.5l6.6,0c0,0,0,0,0,0c0.3,0,0.5,0.2,0.5,0.5
			s-0.2,0.5-0.5,0.5L247.7,44.6C247.7,44.6,247.7,44.6,247.7,44.6z"/>
	</g>
	<g>
		<path class="st2" d="M252.6,46.2c-0.1,0-0.3,0-0.4-0.1l-3.1-3.1c-0.2-0.2-0.2-0.5,0-0.7c0.2-0.2,0.5-0.2,0.7,0l3.1,3.1
			c0.2,0.2,0.2,0.5,0,0.7C252.9,46.1,252.7,46.2,252.6,46.2z"/>
	</g>
</g>
<g>
	<g>
		<path class="st2" d="M201.8,35.3c-0.3,0-0.5-0.2-0.5-0.5l0-6.6c0-0.3,0.2-0.5,0.5-0.5h0c0.3,0,0.5,0.2,0.5,0.5l0,6.6
			C202.3,35.1,202,35.3,201.8,35.3L201.8,35.3z"/>
	</g>
	<g>
		<path class="st2" d="M200.2,33.6c-0.1,0-0.3,0-0.4-0.1c-0.2-0.2-0.2-0.5,0-0.7l3.1-3.1c0.2-0.2,0.5-0.2,0.7,0
			c0.2,0.2,0.2,0.5,0,0.7l-3.1,3.1C200.5,33.5,200.3,33.6,200.2,33.6z"/>
	</g>
	<g>
		<path class="st2" d="M198.4,32c-0.3,0-0.5-0.2-0.5-0.5s0.2-0.5,0.5-0.5l6.6,0h0c0.3,0,0.5,0.2,0.5,0.5s-0.2,0.5-0.5,0.5L198.4,32
			L198.4,32z"/>
	</g>
	<g>
		<path class="st2" d="M203.3,33.6c-0.1,0-0.3,0-0.4-0.1l-3.1-3.1c-0.2-0.2-0.2-0.5,0-0.7c0.2-0.2,0.5-0.2,0.7,0l3.1,3.1
			c0.2,0.2,0.2,0.5,0,0.7C203.6,33.5,203.5,33.6,203.3,33.6z"/>
	</g>
</g>
<circle class="st3" cx="274.1" cy="70.8" r="19.1"/>
<g>
	<path class="st1" d="M291,53.9c-9.3-9.3-24.4-9.3-33.8,0c-9.3,9.3-9.3,24.4,0,33.8c9.3,9.3,24.4,9.3,33.8,0
		C300.3,78.4,300.3,63.3,291,53.9z"/>
	<path class="st2" d="M274.1,95.2c-6.2,0-12.5-2.4-17.2-7.1c-4.6-4.6-7.1-10.7-7.1-17.2c0-6.5,2.5-12.6,7.1-17.2
		c9.5-9.5,25-9.5,34.5,0v0c9.5,9.5,9.5,25,0,34.5C286.6,92.8,280.3,95.2,274.1,95.2z M274.1,47.5c-6,0-12,2.3-16.5,6.8
		c-4.4,4.4-6.8,10.3-6.8,16.5c0,6.2,2.4,12.1,6.8,16.5c9.1,9.1,23.9,9.1,33.1,0c9.1-9.1,9.1-23.9,0-33.1
		C286.1,49.7,280.1,47.5,274.1,47.5z"/>
</g>
<circle class="st1" cx="274.1" cy="70.8" r="19.1"/>
<path class="st2" d="M274.1,90.4c-5.2,0-10.2-2-13.9-5.7c-7.6-7.6-7.6-20.1,0-27.7c7.6-7.6,20.1-7.6,27.7,0
	c3.7,3.7,5.7,8.6,5.7,13.9c0,5.2-2,10.1-5.7,13.8l0,0C284.2,88.4,279.3,90.4,274.1,90.4C274.1,90.4,274.1,90.4,274.1,90.4z
	 M274.1,52.2c-4.8,0-9.5,1.8-13.2,5.4c-7.2,7.3-7.2,19.1,0,26.3c3.5,3.5,8.2,5.5,13.2,5.5c0,0,0,0,0,0c5,0,9.6-1.9,13.1-5.5l0,0
	c3.5-3.5,5.4-8.2,5.4-13.1c0-5-1.9-9.6-5.4-13.2C283.6,54.1,278.9,52.2,274.1,52.2z"/>
<g>
	<g>
		<path class="st1" d="M321.2,108.9c1.6,1.6,1.6,4.1,0,5.7l-3.3,3.3c-1.6,1.6-4.1,1.6-5.7,0l-21.3-21.3c-1.6-1.6-1.6-4.1,0-5.7
			l3.3-3.3c1.6-1.6,4.1-1.6,5.7,0L321.2,108.9z"/>
	</g>
	<g>
		<path class="st2" d="M315,119.6c-1.2,0-2.3-0.4-3.2-1.3l-21.3-21.3c-1.8-1.8-1.8-4.6,0-6.4l3.3-3.3c1.8-1.8,4.6-1.8,6.4,0
			l21.3,21.3c1.8,1.8,1.8,4.6,0,6.4l-3.3,3.3C317.3,119.1,316.1,119.6,315,119.6z M297,86.9c-0.9,0-1.8,0.4-2.5,1l-3.3,3.3
			c-1.4,1.4-1.4,3.6,0,5l21.3,21.3c1.4,1.4,3.6,1.4,5,0l3.3-3.3c0.7-0.7,1-1.5,1-2.5s-0.4-1.8-1-2.5l-21.3-21.3
			C298.8,87.2,297.9,86.9,297,86.9z"/>
	</g>
</g>
<g>
	<path class="st2" d="M259.2,69.4c0,0-0.1,0-0.1,0c-0.3-0.1-0.4-0.3-0.3-0.6c0.9-3.2,2.6-6.2,5-8.6c1.7-1.7,3.6-3,5.8-4
		c0.2-0.1,0.5,0,0.7,0.3c0.1,0.3,0,0.5-0.3,0.7c-2.1,0.9-3.9,2.2-5.5,3.8c-2.3,2.3-3.9,5.1-4.8,8.1
		C259.6,69.3,259.4,69.4,259.2,69.4z"/>
</g>
<path class="st4" d="M272.9,69.4l-15.5-7.7l-0.4,0.9l15.5,7.7c0.1,0.1,0.2,0.1,0.4,0.2l-16,8.3l0.5,0.9l16.2-8.5
	c0.3,0.5,0.5,1,0.5,1.4v17.2h1V72.7C274.9,71.4,274,70,272.9,69.4z"/>
</svg>
