<?xml version="1.0" encoding="utf-8"?>
<!-- Generator: Adobe Illustrator 22.1.0, SVG Export Plug-In . SVG Version: 6.00 Build 0)  -->
<svg version="1.1" id="Layer_1" xmlns="http://www.w3.org/2000/svg" xmlns:xlink="http://www.w3.org/1999/xlink" x="0px" y="0px"
	 viewBox="0 0 452.8 140" style="enable-background:new 0 0 452.8 140;" xml:space="preserve">
<style type="text/css">
	.st0{fill:#E3E3E3;}
	.st1{fill:#969696;}
	.st2{fill:#FFFFFF;}
</style>
<path class="st0" d="M94.5,88.8c-0.9-6.6-6.6-11.8-13.6-11.8c-5.1,0-9.5,2.8-12,7c-5.6,0.1-10.2,4.6-10.2,10.4
	c0,5.7,4.5,10.4,10.4,10.4h23c4.5,0,7.9-3.6,7.9-7.9C100.1,92.7,97.7,89.7,94.5,88.8z"/>
<path class="st0" d="M395.9,58.2c-1.1-8.1-8.1-14.4-16.4-14.4c-6.2,0-11.6,3.4-14.4,8.3c-6.8,0.1-12.3,5.6-12.3,12.4
	s5.6,12.4,12.4,12.4H393c5.4,0,9.7-4.3,9.7-9.7C402.7,63.1,399.8,59.4,395.9,58.2z"/>
<path class="st1" d="M312.8,132H140c-2.5,0-4.5-2-4.5-4.5V21c0-2.5,2-4.5,4.5-4.5h172.7c2.5,0,4.5,2,4.5,4.5v106.5
	C317.3,130,315.2,132,312.8,132z M140,17.5c-1.9,0-3.5,1.6-3.5,3.5v106.5c0,1.9,1.6,3.5,3.5,3.5h172.7c1.9,0,3.5-1.6,3.5-3.5V21
	c0-1.9-1.6-3.5-3.5-3.5H140z"/>
<path class="st0" d="M312,124.5c0,2.2-1.8,4-4,4H144.8c-2.2,0-4-1.8-4-4V25.7c0-2.2,1.8-4,4-4H308c2.2,0,4,1.8,4,4V124.5z"/>
<path class="st2" d="M328,129.1c-0.4,2.2-2.6,3.9-4.8,3.9H129.6c-2.2,0-4.4-1.8-4.8-3.9l-0.3-1.7c-0.4-2.2,1-3.9,3.2-3.9h197.5
	c2.2,0,3.6,1.8,3.2,3.9L328,129.1z"/>
<path class="st1" d="M323.2,133.5H129.6c-2.4,0-4.8-1.9-5.3-4.3l-0.3-1.7c-0.2-1.2,0-2.3,0.7-3.2c0.7-0.9,1.8-1.3,3-1.3h197.5
	c1.2,0,2.3,0.5,3,1.3c0.7,0.9,1,2,0.7,3.2l-0.3,1.7C328,131.6,325.7,133.5,323.2,133.5z M127.7,124c-0.9,0-1.7,0.3-2.2,1
	s-0.7,1.5-0.5,2.4l0.3,1.7c0.4,1.9,2.3,3.5,4.3,3.5h193.7c1.9,0,3.9-1.6,4.3-3.5v0l0.3-1.7c0.2-0.9,0-1.7-0.5-2.4
	c-0.5-0.6-1.3-1-2.2-1H127.7z"/>
<rect x="52.7" y="132.5" class="st1" width="347.4" height="1"/>
<circle class="st2" cx="226.4" cy="73.1" r="36.2"/>
<g>
	<path class="st0" d="M253.1,80c-0.8,0.4-3.2,0.7-5.4,0.7h-42.5c-2.2,0-4.3-0.1-4.8-0.2c-0.4-0.1-1.4-0.9-1.6-1.2
		c-0.2-0.3-0.4-3.2-0.4-5.4v-1.3c0-2.2,0.1-4.3,0.2-4.8c0.1-0.4,0.9-1.4,1.2-1.7s3.2-0.4,5.4-0.4h42.5c2.2,0,4.7,0.3,5.5,0.6
		c0.8,0.3,1.4,4.1,1.4,6.3v1.2c0,2.2-0.3,4.6-0.6,5.4C253.6,80,253.9,79.6,253.1,80z"/>
</g>
</svg>
