<?xml version="1.0" encoding="utf-8"?>
<!-- Generator: Adobe Illustrator 22.0.1, SVG Export Plug-In . SVG Version: 6.00 Build 0)  -->
<svg version="1.1" id="Layer_1" xmlns="http://www.w3.org/2000/svg" xmlns:xlink="http://www.w3.org/1999/xlink" x="0px" y="0px"
	 viewBox="0 0 284 140" style="enable-background:new 0 0 284 140;" xml:space="preserve">
<style type="text/css">
	.st0{fill:#F2F2F2;}
	.st1{fill:#E3E3E3;}
	.st2{fill:#969696;}
</style>
<g>
	<g>
		<rect x="75.4" y="4" class="st0" width="22.2" height="131.1"/>
	</g>
	<g>
		<rect x="185.3" y="4" class="st0" width="22.2" height="131.1"/>
	</g>
	<g>
		<path class="st1" d="M169.6,70.3c0.3,0.3,0.4,0.6,0.4,1.1c-0.3,4.8-1.7,9.2-4.2,13.3c-2.5,4.1-5.9,7.3-10.1,9.6
			c-4.2,2.4-8.8,3.5-13.6,3.5c-3.2,0-6.2-0.5-9.1-1.5s-5.5-2.4-7.9-4.2l-5.6,5.6c-0.8,0.7-1.6,1-2.6,1s-1.8-0.3-2.5-1
			c-0.7-0.7-1.1-1.5-1.1-2.6V80.7c0-1,0.4-1.8,1.1-2.5c0.7-0.7,1.6-1.1,2.5-1.1h14.4c1.1,0,1.9,0.4,2.6,1.1c0.7,0.7,1,1.6,1,2.5
			s-0.3,1.8-1,2.6l-6.1,6c4.3,3.2,9,4.7,14.3,4.7c4.2,0,8.1-1,11.7-3c3.6-2,6.5-4.8,8.7-8.3s3.4-7.3,3.7-11.5c0-0.3,0.1-0.6,0.4-0.8
			c0.3-0.3,0.6-0.4,1-0.4h1.1C169,69.9,169.3,70,169.6,70.3z M167.3,41.1c1,0,1.8,0.3,2.5,1c0.7,0.7,1.1,1.5,1.1,2.6v14.4
			c0,1-0.4,1.8-1.1,2.5c-0.7,0.7-1.6,1.1-2.5,1.1h-14.4c-1.1,0-1.9-0.4-2.6-1.1c-0.7-0.7-1-1.6-1-2.5c0-1,0.3-1.8,1-2.6l6.1-6
			c-4.3-3.2-9.1-4.7-14.3-4.7c-4.2,0-8.1,1-11.7,3c-3.6,2-6.5,4.8-8.7,8.3c-2.2,3.5-3.4,7.3-3.7,11.5c0,0.3-0.1,0.6-0.4,0.8
			c-0.3,0.3-0.6,0.4-1,0.4h-1.1c-0.4,0-0.7-0.1-1-0.4c-0.3-0.3-0.4-0.6-0.4-1.1c0.3-4.8,1.7-9.2,4.2-13.3c2.5-4.1,5.9-7.3,10.1-9.6
			c4.2-2.4,8.7-3.5,13.6-3.5c3.2,0,6.2,0.5,9.1,1.5c2.9,1,5.5,2.4,7.9,4.2l5.6-5.6C165.4,41.4,166.3,41.1,167.3,41.1z M131.2,80.7
			h-14.4v14.4L131.2,80.7z M167.3,44.7l-14.4,14.4h14.4V44.7z"/>
	</g>
	<g>
		<g>
			<path class="st2" d="M29,96c-0.3,0-0.5-0.2-0.5-0.5V81.6c0-0.3,0.2-0.5,0.5-0.5s0.5,0.2,0.5,0.5v13.9C29.5,95.8,29.3,96,29,96z"
				/>
		</g>
		<g>
			<path class="st2" d="M25.7,92.3c-0.1,0-0.3,0-0.4-0.1c-0.2-0.2-0.2-0.5,0-0.7l6.6-6.6c0.2-0.2,0.5-0.2,0.7,0s0.2,0.5,0,0.7
				l-6.6,6.6C26,92.3,25.9,92.3,25.7,92.3z"/>
		</g>
		<g>
			<path class="st2" d="M36,89H22.1c-0.3,0-0.5-0.2-0.5-0.5s0.2-0.5,0.5-0.5H36c0.3,0,0.5,0.2,0.5,0.5S36.3,89,36,89z"/>
		</g>
		<g>
			<path class="st2" d="M32.3,92.3c-0.1,0-0.3,0-0.4-0.1l-6.6-6.6c-0.2-0.2-0.2-0.5,0-0.7s0.5-0.2,0.7,0l6.6,6.6
				c0.2,0.2,0.2,0.5,0,0.7C32.6,92.3,32.4,92.3,32.3,92.3z"/>
		</g>
	</g>
	<g>
		<g>
			<path class="st2" d="M254.1,58c-0.3,0-0.5-0.2-0.5-0.5V43.6c0-0.3,0.2-0.5,0.5-0.5s0.5,0.2,0.5,0.5v13.9
				C254.6,57.8,254.4,58,254.1,58z"/>
		</g>
		<g>
			<path class="st2" d="M250.9,54.3c-0.1,0-0.3,0-0.4-0.1c-0.2-0.2-0.2-0.5,0-0.7l6.6-6.6c0.2-0.2,0.5-0.2,0.7,0s0.2,0.5,0,0.7
				l-6.6,6.6C251.1,54.3,251,54.3,250.9,54.3z"/>
		</g>
		<g>
			<path class="st2" d="M261.1,51.1h-13.9c-0.3,0-0.5-0.2-0.5-0.5s0.2-0.5,0.5-0.5h13.9c0.3,0,0.5,0.2,0.5,0.5
				S261.4,51.1,261.1,51.1z"/>
		</g>
		<g>
			<path class="st2" d="M257.4,54.3c-0.1,0-0.3,0-0.4-0.1l-6.6-6.6c-0.2-0.2-0.2-0.5,0-0.7s0.5-0.2,0.7,0l6.6,6.6
				c0.2,0.2,0.2,0.5,0,0.7C257.7,54.3,257.5,54.3,257.4,54.3z"/>
		</g>
	</g>
	<g>
		<path class="st2" d="M75.6,135.6c-0.3,0-0.5-0.2-0.5-0.5V4c0-0.3,0.2-0.5,0.5-0.5s0.5,0.2,0.5,0.5v131.1
			C76.1,135.4,75.9,135.6,75.6,135.6z"/>
	</g>
	<g>
		<path class="st2" d="M97.6,135.6c-0.3,0-0.5-0.2-0.5-0.5V4c0-0.3,0.2-0.5,0.5-0.5s0.5,0.2,0.5,0.5v131.1
			C98.1,135.4,97.9,135.6,97.6,135.6z"/>
	</g>
	<g>
		<path class="st2" d="M185.6,26H98c-0.3,0-0.5-0.2-0.5-0.5S97.8,25,98,25h87.5c0.3,0,0.5,0.2,0.5,0.5S185.9,26,185.6,26z"/>
	</g>
	<g>
		<path class="st2" d="M185.6,114H98c-0.3,0-0.5-0.2-0.5-0.5s0.2-0.5,0.5-0.5h87.5c0.3,0,0.5,0.2,0.5,0.5S185.9,114,185.6,114z"/>
	</g>
	<g>
		<path class="st2" d="M185.6,135.6c-0.3,0-0.5-0.2-0.5-0.5V4c0-0.3,0.2-0.5,0.5-0.5s0.5,0.2,0.5,0.5v131.1
			C186.1,135.4,185.9,135.6,185.6,135.6z"/>
	</g>
	<g>
		<path class="st2" d="M207.6,136.5c-0.3,0-0.5-0.2-0.5-0.5V4.9c0-0.3,0.2-0.5,0.5-0.5s0.5,0.2,0.5,0.5V136
			C208.1,136.3,207.9,136.5,207.6,136.5z"/>
	</g>
	<g>
		<path class="st2" d="M97.4,15h-22c-0.3,0-0.5-0.2-0.5-0.5s0.2-0.5,0.5-0.5h22c0.3,0,0.5,0.2,0.5,0.5S97.7,15,97.4,15z"/>
	</g>
	<g>
		<path class="st2" d="M97.4,37h-22c-0.3,0-0.5-0.2-0.5-0.5s0.2-0.5,0.5-0.5h22c0.3,0,0.5,0.2,0.5,0.5S97.7,37,97.4,37z"/>
	</g>
	<g>
		<path class="st2" d="M97.4,59h-22c-0.3,0-0.5-0.2-0.5-0.5s0.2-0.5,0.5-0.5h22c0.3,0,0.5,0.2,0.5,0.5S97.7,59,97.4,59z"/>
	</g>
	<g>
		<path class="st2" d="M97.4,81h-22c-0.3,0-0.5-0.2-0.5-0.5s0.2-0.5,0.5-0.5h22c0.3,0,0.5,0.2,0.5,0.5S97.7,81,97.4,81z"/>
	</g>
	<g>
		<path class="st2" d="M97.4,103h-22c-0.3,0-0.5-0.2-0.5-0.5s0.2-0.5,0.5-0.5h22c0.3,0,0.5,0.2,0.5,0.5S97.7,103,97.4,103z"/>
	</g>
	<g>
		<path class="st2" d="M97.4,125h-22c-0.3,0-0.5-0.2-0.5-0.5s0.2-0.5,0.5-0.5h22c0.3,0,0.5,0.2,0.5,0.5S97.7,125,97.4,125z"/>
	</g>
	<g>
		<path class="st2" d="M207.4,15h-22c-0.3,0-0.5-0.2-0.5-0.5s0.2-0.5,0.5-0.5h22c0.3,0,0.5,0.2,0.5,0.5S207.7,15,207.4,15z"/>
	</g>
	<g>
		<path class="st2" d="M207.4,37h-22c-0.3,0-0.5-0.2-0.5-0.5s0.2-0.5,0.5-0.5h22c0.3,0,0.5,0.2,0.5,0.5S207.7,37,207.4,37z"/>
	</g>
	<g>
		<path class="st2" d="M207.4,59h-22c-0.3,0-0.5-0.2-0.5-0.5s0.2-0.5,0.5-0.5h22c0.3,0,0.5,0.2,0.5,0.5S207.7,59,207.4,59z"/>
	</g>
	<g>
		<path class="st2" d="M207.4,81h-22c-0.3,0-0.5-0.2-0.5-0.5s0.2-0.5,0.5-0.5h22c0.3,0,0.5,0.2,0.5,0.5S207.7,81,207.4,81z"/>
	</g>
	<g>
		<path class="st2" d="M207.4,103h-22c-0.3,0-0.5-0.2-0.5-0.5s0.2-0.5,0.5-0.5h22c0.3,0,0.5,0.2,0.5,0.5S207.7,103,207.4,103z"/>
	</g>
	<g>
		<path class="st2" d="M207.4,125h-22c-0.3,0-0.5-0.2-0.5-0.5s0.2-0.5,0.5-0.5h22c0.3,0,0.5,0.2,0.5,0.5S207.7,125,207.4,125z"/>
	</g>
</g>
</svg>
